<?xml version="1.0" encoding="UTF-8" ?>
<!DOCTYPE svg PUBLIC "-//W3C//DTD SVG 1.1//EN" "http://www.w3.org/Graphics/SVG/1.1/DTD/svg11.dtd">
<svg width="428pt" height="98pt" viewBox="0 0 428 98" version="1.1" xmlns="http://www.w3.org/2000/svg">
<g id="#17262aff">
<path fill="#17262a" opacity="1.00" d=" M 77.18 0.00 L 81.34 0.00 C 82.20 3.15 85.97 4.20 88.08 6.46 C 90.36 6.49 92.63 6.47 94.91 6.40 C 95.83 4.67 96.87 2.98 98.34 1.65 C 98.33 1.24 98.31 0.41 98.30 0.00 L 100.66 0.00 C 100.63 0.41 100.58 1.24 100.55 1.66 C 105.81 5.03 104.92 12.54 110.04 16.02 C 114.89 20.73 122.15 20.22 128.28 19.03 C 136.07 17.45 145.19 19.14 150.59 25.36 C 154.93 30.09 155.06 36.95 155.53 43.00 C 156.16 55.29 152.17 69.34 141.06 76.03 C 132.79 79.75 123.48 80.80 114.48 80.29 C 113.57 85.05 114.20 90.38 111.30 94.55 C 110.52 95.72 109.67 96.85 108.84 98.00 L 22.07 98.00 C 15.93 91.45 10.74 83.66 9.31 74.64 C 6.56 73.65 3.71 72.85 1.18 71.36 C 1.39 68.72 4.18 67.65 5.59 65.72 C 9.64 61.41 7.61 55.06 9.70 49.96 C 14.62 32.31 30.66 19.56 48.04 15.34 C 55.43 13.25 63.16 14.89 70.67 14.22 C 76.33 11.36 70.24 1.61 77.18 0.00 M 78.62 6.26 C 78.54 10.51 79.63 15.71 75.93 18.83 C 72.75 22.23 67.91 19.30 63.99 19.60 C 59.74 20.13 55.38 20.17 51.22 21.24 C 36.58 24.20 23.34 33.86 16.46 47.18 C 12.88 55.37 14.24 64.60 14.57 73.26 C 15.04 74.52 15.45 75.81 15.80 77.12 C 17.87 82.71 20.84 88.02 24.96 92.37 C 33.72 92.41 42.49 92.37 51.25 92.39 C 54.44 87.81 49.92 82.02 45.03 81.55 C 40.77 81.00 36.46 81.55 32.36 82.76 C 32.36 82.20 32.35 81.09 32.35 80.54 C 33.83 80.09 35.30 79.62 36.79 79.19 C 36.78 76.38 33.87 75.91 31.83 75.04 C 31.73 74.11 31.62 73.18 31.52 72.25 C 37.22 74.99 43.94 75.51 49.98 73.71 C 51.04 73.68 52.11 73.67 53.18 73.67 C 53.52 80.91 57.06 87.51 60.55 93.70 C 68.78 93.58 77.00 93.77 85.22 93.58 C 86.66 92.39 88.11 91.21 89.59 90.07 C 89.76 87.58 89.79 85.08 89.76 82.58 C 86.32 78.54 80.73 79.16 75.98 79.59 C 72.36 79.97 69.26 82.18 65.64 82.55 C 65.29 82.87 64.58 83.49 64.22 83.81 C 67.16 77.84 74.73 75.54 80.95 75.54 C 86.85 74.98 92.85 78.21 95.31 83.65 C 95.64 84.74 95.98 85.83 96.32 86.91 C 96.38 89.14 96.40 91.38 96.42 93.61 C 99.48 93.68 102.55 93.68 105.62 93.64 C 109.76 89.79 108.47 83.79 108.57 78.75 C 100.37 75.69 93.33 69.62 89.64 61.62 C 88.65 59.08 86.52 56.11 88.80 53.61 C 93.60 62.67 102.73 68.36 111.89 72.27 C 117.04 74.27 122.57 74.87 128.05 74.31 C 129.67 73.82 131.31 73.36 132.92 72.83 C 140.74 69.92 146.03 62.47 148.81 54.88 C 150.51 50.80 150.63 46.34 150.50 41.99 C 150.59 37.09 148.93 32.03 145.56 28.43 C 141.52 23.87 134.45 23.47 129.02 25.32 C 123.75 25.81 118.24 26.34 113.08 24.85 C 107.91 23.13 104.09 18.91 101.46 14.28 C 99.15 10.22 93.67 11.43 89.82 11.73 C 87.35 13.51 87.37 17.92 83.52 17.96 C 83.52 15.39 84.05 12.73 83.36 10.20 C 82.49 8.21 80.35 7.34 78.62 6.26 Z" />
<path fill="#17262a" opacity="1.00" d=" M 96.82 31.51 C 98.58 31.25 100.39 31.35 102.09 31.90 C 102.82 33.89 102.80 36.10 102.06 38.09 C 100.06 38.70 97.90 38.72 95.90 38.11 C 95.34 35.98 94.54 32.91 96.82 31.51 Z" />
<path fill="#17262a" opacity="1.00" d=" M 336.68 36.38 C 338.22 36.37 339.77 36.37 341.32 36.38 C 342.09 37.14 342.86 37.90 343.64 38.66 C 343.64 40.23 343.64 41.80 343.63 43.37 C 342.86 44.12 342.09 44.87 341.33 45.63 C 339.77 45.63 338.21 45.63 336.65 45.62 C 335.89 44.85 335.13 44.08 334.37 43.31 C 334.36 41.76 334.36 40.21 334.38 38.67 C 335.14 37.90 335.91 37.14 336.68 36.38 Z" />
<path fill="#17262a" opacity="1.00" d=" M 254.47 41.67 C 257.41 41.68 260.36 41.70 263.31 41.77 C 263.43 52.30 263.39 62.83 263.33 73.35 C 260.82 73.45 258.31 73.49 255.80 73.52 C 255.41 72.94 254.62 71.77 254.23 71.19 C 251.32 73.81 247.50 73.93 243.83 73.52 C 241.54 71.84 239.85 69.55 238.53 67.07 C 238.32 63.67 237.97 60.23 238.57 56.85 C 239.29 54.13 241.66 52.36 243.56 50.45 C 246.35 50.68 249.97 49.17 252.07 51.65 C 252.61 51.55 253.70 51.33 254.24 51.23 C 254.44 48.04 254.32 44.85 254.47 41.67 M 248.93 56.57 C 248.15 57.61 247.36 58.63 246.57 59.65 C 246.57 61.22 246.57 62.78 246.59 64.35 C 247.38 65.36 248.18 66.37 248.97 67.39 C 249.82 67.46 250.68 67.53 251.54 67.60 C 253.97 65.70 254.67 62.79 254.50 59.83 C 253.50 58.68 252.50 57.54 251.50 56.40 C 250.64 56.46 249.78 56.51 248.93 56.57 Z" />
<path fill="#17262a" opacity="1.00" d=" M 173.60 51.91 C 175.29 46.82 179.46 42.35 184.97 41.67 C 189.46 41.36 194.50 40.91 198.36 43.71 C 200.79 45.20 202.00 47.87 203.51 50.17 C 203.23 50.48 202.68 51.10 202.40 51.41 C 199.91 52.07 197.36 52.46 194.79 52.64 C 194.23 51.60 193.67 50.56 193.12 49.53 C 190.53 49.49 187.48 48.55 185.20 50.05 C 181.47 54.73 181.60 62.52 186.43 66.45 C 188.15 66.43 189.87 66.43 191.59 66.45 C 193.07 65.02 194.54 63.45 194.81 61.30 C 197.55 61.33 200.26 61.82 202.90 62.56 C 203.45 67.89 199.01 72.33 194.08 73.44 C 190.69 73.93 187.26 73.62 183.86 73.49 C 178.86 72.04 175.34 67.91 173.59 63.16 C 173.40 59.41 173.39 55.65 173.60 51.91 Z" />
<path fill="#17262a" opacity="1.00" d=" M 300.32 42.27 C 307.97 42.24 315.63 42.13 323.28 42.39 C 325.23 43.91 327.93 45.19 328.32 47.92 C 328.68 50.83 328.84 54.38 326.43 56.51 C 325.12 57.60 322.36 58.23 323.54 60.47 C 326.74 64.27 329.33 68.67 330.76 73.45 C 327.36 73.49 323.96 73.48 320.56 73.52 C 317.94 69.63 316.22 65.20 313.38 61.48 C 312.58 60.20 310.98 60.63 309.74 60.51 C 309.74 64.61 309.75 68.71 309.72 72.81 C 306.59 72.79 303.47 72.78 300.35 72.76 C 300.33 62.59 300.39 52.43 300.32 42.27 M 310.24 48.23 C 310.25 50.37 310.28 52.50 310.34 54.63 C 313.17 54.62 316.06 54.51 318.69 53.31 C 318.56 51.82 318.38 50.34 318.15 48.87 C 315.58 48.13 312.88 48.32 310.24 48.23 Z" />
<path fill="#17262a" opacity="1.00" d=" M 213.71 51.63 C 216.45 49.84 219.89 50.31 223.00 50.30 C 227.63 50.03 231.66 53.57 233.36 57.65 C 233.97 60.49 233.61 63.43 233.50 66.31 C 232.09 68.54 230.63 70.92 228.16 72.12 C 224.56 74.54 220.01 73.47 215.95 73.49 C 211.51 71.41 207.35 67.26 207.62 62.00 C 207.31 57.66 210.23 53.87 213.71 51.63 M 218.82 56.42 C 218.09 57.30 217.36 58.18 216.62 59.04 C 216.55 61.01 216.54 62.98 216.59 64.95 C 217.30 65.82 218.01 66.70 218.71 67.59 C 220.21 67.60 221.72 67.60 223.23 67.60 C 224.65 65.37 225.79 62.94 225.40 60.22 C 224.61 58.97 223.86 57.69 223.14 56.40 C 221.70 56.40 220.26 56.40 218.82 56.42 Z" />
<path fill="#17262a" opacity="1.00" d=" M 273.10 52.16 C 275.34 50.33 278.34 50.40 281.03 49.84 C 284.30 50.38 287.98 50.25 290.56 52.70 C 294.08 55.44 294.88 60.07 294.43 64.28 C 288.64 64.33 282.85 64.18 277.07 64.44 C 277.57 65.94 278.38 67.30 279.30 68.59 C 282.01 68.81 284.46 67.81 286.87 66.71 C 289.13 66.92 291.36 67.37 293.61 67.64 C 293.52 68.00 293.32 68.71 293.22 69.06 C 292.06 70.09 290.91 71.13 289.74 72.15 C 288.78 72.55 287.82 72.97 286.86 73.41 C 283.30 73.72 279.71 73.78 276.15 73.39 C 275.17 72.95 274.18 72.52 273.18 72.11 C 271.14 70.51 269.68 68.36 268.53 66.07 C 268.33 63.33 268.35 60.59 268.49 57.86 C 269.76 55.77 270.96 53.50 273.10 52.16 M 279.33 55.41 C 278.35 56.66 277.55 58.04 277.04 59.55 C 279.91 59.72 282.78 59.70 285.66 59.62 C 285.53 58.70 285.41 57.78 285.30 56.86 C 283.53 55.63 281.46 55.16 279.33 55.41 Z" />
<path fill="#17262a" opacity="1.00" d=" M 348.16 50.43 C 350.88 50.45 353.60 50.48 356.33 50.44 C 357.66 53.17 358.24 56.17 359.32 59.00 C 359.51 60.45 359.68 61.91 359.85 63.38 C 360.59 63.37 361.33 63.37 362.08 63.36 C 362.84 58.97 364.22 54.70 365.79 50.53 C 368.47 50.47 371.16 50.43 373.84 50.42 C 373.60 53.22 372.41 55.76 371.24 58.27 C 370.42 60.15 369.62 62.04 368.77 63.91 C 367.93 66.00 367.05 68.08 366.11 70.12 C 365.77 71.20 365.44 72.27 365.12 73.36 C 362.36 73.48 359.61 73.49 356.85 73.40 C 356.36 71.87 355.84 70.36 355.30 68.85 C 354.49 67.27 353.79 65.64 353.19 63.97 C 351.52 59.46 348.76 55.28 348.16 50.43 Z" />
<path fill="#17262a" opacity="1.00" d=" M 377.68 56.85 C 379.63 53.49 382.98 50.33 387.09 50.32 C 391.02 50.31 395.56 49.59 398.77 52.42 C 401.00 53.98 402.27 56.45 402.95 59.03 C 403.49 60.71 403.41 62.50 403.39 64.24 C 397.61 64.32 391.82 64.28 386.04 64.31 C 385.68 68.07 389.23 68.81 392.15 68.59 C 392.96 67.91 393.78 67.23 394.60 66.56 C 396.85 66.64 399.10 66.71 401.36 66.77 C 401.46 67.72 401.56 68.66 401.67 69.61 C 397.35 74.17 390.72 74.18 384.96 73.35 C 381.77 72.47 379.20 69.98 377.69 67.10 C 377.10 63.73 377.11 60.23 377.68 56.85 M 386.74 55.68 C 386.53 57.02 386.34 58.36 386.15 59.70 C 388.72 59.71 391.29 59.71 393.87 59.71 C 393.67 58.36 393.49 57.01 393.30 55.66 C 391.11 55.56 388.92 55.56 386.74 55.68 Z" />
<path fill="#17262a" opacity="1.00" d=" M 408.42 50.47 C 410.79 50.46 413.15 50.44 415.53 50.39 L 415.60 51.92 C 418.96 51.04 422.21 49.72 425.77 50.43 C 425.64 52.98 424.49 55.23 423.21 57.37 C 421.70 57.38 420.18 57.40 418.68 57.42 C 416.10 62.41 416.64 68.06 416.54 73.48 C 413.84 73.48 411.15 73.49 408.46 73.50 C 408.26 65.82 408.32 58.15 408.42 50.47 Z" />
<path fill="#17262a" opacity="1.00" d=" M 335.40 50.46 C 338.11 50.46 340.82 50.47 343.53 50.48 C 343.64 58.14 343.66 65.81 343.51 73.47 C 340.82 73.48 338.12 73.48 335.43 73.49 C 335.25 65.82 335.30 58.14 335.40 50.46 Z" />
</g>
</svg>
